<svg width="27" height="29" viewBox="0 0 27 29" fill="none" xmlns="http://www.w3.org/2000/svg">
<path d="M16.9688 10.125V4.65625C16.9688 3.78601 16.623 2.95141 16.0077 2.33606C15.3923 1.7207 14.5577 1.375 13.6875 1.375H4.9375C4.06726 1.375 3.23266 1.7207 2.61731 2.33606C2.00195 2.95141 1.65625 3.78601 1.65625 4.65625V24.3438C1.65625 25.214 2.00195 26.0486 2.61731 26.6639C3.23266 27.2793 4.06726 27.625 4.9375 27.625H13.6875C14.5577 27.625 15.3923 27.2793 16.0077 26.6639C16.623 26.0486 16.9688 25.214 16.9688 24.3438V18.875M21.3438 18.875L25.7188 14.5M25.7188 14.5L21.3438 10.125M25.7188 14.5H7.125" stroke="white" stroke-width="1.5" stroke-linecap="round" stroke-linejoin="round"/>
</svg>
