<svg width="22" height="22" viewBox="0 0 22 22" fill="none" xmlns="http://www.w3.org/2000/svg">
<path d="M14.8753 1.02009C14.7886 0.933438 14.6857 0.864703 14.5725 0.817806C14.4593 0.770909 14.338 0.74677 14.2154 0.746765C14.0929 0.746761 13.9716 0.770892 13.8584 0.81778C13.7452 0.864669 13.6423 0.933397 13.5556 1.02004C13.469 1.10668 13.4003 1.20955 13.3534 1.32275C13.3065 1.43596 13.2824 1.5573 13.2824 1.67983C13.2824 1.80237 13.3065 1.92371 13.3534 2.03692C13.4003 2.15013 13.469 2.25299 13.5557 2.33964L20.1539 8.9379C20.2406 9.02454 20.3435 9.09328 20.4567 9.14018C20.5699 9.18707 20.6912 9.21121 20.8138 9.21122C20.9363 9.21122 21.0576 9.18709 21.1708 9.1402C21.284 9.09331 21.3869 9.02459 21.4736 8.93794C21.5602 8.8513 21.6289 8.74844 21.6758 8.63523C21.7227 8.52202 21.7468 8.40069 21.7468 8.27815C21.7468 8.15561 21.7227 8.03428 21.6758 7.92107C21.6289 7.80786 21.5602 7.70499 21.4735 7.61834L14.8753 1.02009ZM13.5558 4.97885C13.2172 4.64081 12.678 4.61355 12.3071 4.91566L8.61383 7.9233C8.41404 8.086 8.0472 8.1725 7.79295 8.13074C6.58953 7.9331 5.53736 7.98888 4.76972 8.17445C3.79001 8.41128 3.15374 8.81358 3.15374 8.81358C2.65444 9.1357 2.57938 9.83623 2.99915 10.2569L12.2367 19.4944C12.6574 19.9142 13.3579 19.8391 13.68 19.3398C13.68 19.3398 14.0823 18.7036 14.3191 17.7239C14.5047 16.9562 14.5592 15.9028 14.3616 14.6994C14.3198 14.4451 14.4076 14.0796 14.5703 13.8798L17.5779 10.1865C17.88 9.81564 17.8528 9.27637 17.5147 8.9378L13.5558 4.97885ZM6.29837 16.1952C6.21172 16.1086 6.10886 16.0398 5.99565 15.9929C5.88244 15.946 5.7611 15.9219 5.63856 15.9219C5.51602 15.9219 5.39469 15.946 5.28148 15.9929C5.16827 16.0398 5.06541 16.1085 4.97877 16.1952L1.0201 20.1538C0.933458 20.2405 0.86473 20.3433 0.817841 20.4566C0.770953 20.5698 0.746822 20.6911 0.746826 20.8136C0.746831 20.9362 0.77097 21.0575 0.817867 21.1707C0.864764 21.2839 0.933499 21.3868 1.02015 21.4734C1.1068 21.5601 1.20966 21.6288 1.32288 21.6757C1.43609 21.7226 1.55742 21.7468 1.67996 21.7468C1.8025 21.7468 1.92383 21.7226 2.03704 21.6758C2.15025 21.6289 2.25311 21.5601 2.33975 21.4735L6.29842 17.5148C6.38506 17.4282 6.45379 17.3253 6.50068 17.2121C6.54757 17.0989 6.5717 16.9776 6.5717 16.855C6.57169 16.7325 6.54755 16.6112 6.50065 16.4979C6.45376 16.3847 6.38502 16.2819 6.29837 16.1952Z" fill="#777777"/>
</svg>
